<?xml version="1.0" encoding="utf-8" ?><svg xmlns="http://www.w3.org/2000/svg" xmlns:xlink="http://www.w3.org/1999/xlink" width="1024" height="1024" viewBox="0 0 1024 1024"><style>.bg{fill:none}@media(prefers-color-scheme:dark){.bg{fill:white}}</style><circle class="bg" cx="512" cy="512" r="512"/><path fill="#2C2222" d="M506.923 58.7254C522.573 58.0984 541.268 59.6106 556.838 61.0424C576.338 62.8358 597.762 65.8198 616.742 70.9855C671.768 85.9617 723.193 114.954 763.576 155.341C793.247 185.334 823.04 220.505 845.555 256.331C851.783 266.239 859.151 280.787 864.12 291.335C889.262 344.704 909.023 402.509 915.219 461.395C916.672 475.208 916.247 488.576 916.151 502.368C916.114 513.537 916.185 524.705 916.365 535.872C917.211 652.681 877.997 770.256 795.874 854.989C717.444 935.911 626.895 963.82 516.691 964.504C499.233 963.599 481.582 964.355 463.986 962.434C452.072 961.133 439.425 961.38 427.526 959.529C409.217 956.682 391.33 952.247 373.856 946.113C292.842 920.393 226.735 862.886 179.147 793.646C171.818 782.678 165.873 771.126 159.874 759.421C138.911 718.521 122.276 669.396 114.003 624.207C110.973 606.772 108.862 589.191 107.678 571.535C106.283 553.026 106.493 534.318 106.324 515.764C106.162 498.009 105.417 480.139 107.386 462.46C114.858 395.372 147.318 306.119 183.246 248.293C194.987 229.396 208.741 211.601 223.23 194.745C239.937 175.308 259.325 154.558 278.814 138.021C327.312 96.8665 385.028 73.2082 447.63 63.9391C467.405 61.0112 487.044 60.2254 506.923 58.7254ZM519.753 957.403C546.297 956.668 575.656 954.578 601.398 950.452C711.936 932.734 809.203 855.818 857.296 755.544C865.714 737.994 875.377 720.693 881.724 702.053C886.749 688.322 889.698 677.336 893.334 663.231C902.003 630.281 907.213 596.517 908.88 562.487C910.137 534.403 908.773 505.126 908.954 476.933C909.053 461.544 905.222 441.636 902.106 426.634C892.537 381.401 877.698 337.446 857.893 295.668C851.251 281.473 844.311 267.066 835.453 254.099C811.102 218.453 782.591 183.197 751.119 153.521C718.351 122.929 679.486 99.6097 637.073 85.0918C607.767 74.7792 580.514 69.806 549.38 68.1959C534.992 67.4518 519.16 65.6173 504.795 66.7148C486.526 67.6924 468.319 68.6115 450.255 71.1372C389.736 79.599 329.718 104.015 283.343 144.452C247.229 175.941 212.704 215.964 186.908 256.409C174.162 276.393 164.287 298.538 155.402 320.397C135.955 366.635 120.702 414.859 114.759 464.838C112.76 481.649 114.476 499.236 114.41 516.109C114.619 534.466 114.412 553.123 115.591 571.517C120.14 642.522 144.447 725.334 182.348 785.596C200.124 813.86 231.823 848.13 256.435 869.883C293.357 902.515 334.47 926.831 381.709 941.041C397.035 946.208 412.527 950.346 428.503 952.962C436.493 954.27 444.596 953.682 452.555 954.533C475.188 956.954 497.008 957.425 519.753 957.403Z"/><path fill="#BE5E3B" d="M504.795 66.7148C519.16 65.6173 534.992 67.4518 549.38 68.1959C580.514 69.806 607.767 74.7792 637.073 85.0918C679.486 99.6097 718.351 122.929 751.119 153.521C782.591 183.197 811.102 218.453 835.453 254.099C844.311 267.066 851.251 281.473 857.893 295.668C877.698 337.446 892.537 381.401 902.106 426.634C905.222 441.636 909.053 461.544 908.954 476.933C908.773 505.126 910.137 534.403 908.88 562.487C907.213 596.517 902.003 630.281 893.334 663.231C889.698 677.336 886.749 688.322 881.724 702.053C875.377 720.693 865.714 737.994 857.296 755.544C809.203 855.818 711.936 932.734 601.398 950.452C575.656 954.578 546.297 956.668 519.753 957.403C497.008 957.425 475.188 956.954 452.555 954.533C444.596 953.682 436.493 954.27 428.503 952.962C412.527 950.346 397.035 946.208 381.709 941.041C334.47 926.831 293.357 902.515 256.435 869.883C231.823 848.13 200.124 813.86 182.348 785.596C144.447 725.334 120.14 642.522 115.591 571.517C114.412 553.123 114.619 534.466 114.41 516.109C114.476 499.236 112.76 481.649 114.759 464.838C120.702 414.859 135.955 366.635 155.402 320.397C164.287 298.538 174.162 276.393 186.908 256.409C212.704 215.964 247.229 175.941 283.343 144.452C329.718 104.015 389.736 79.599 450.255 71.1372C468.319 68.6115 486.526 67.6924 504.795 66.7148ZM523.75 907.454C555.708 907.499 566.873 902.044 596.947 892.416C645.8 876.866 692.124 853.44 731.54 820.405C738.652 814.444 746.692 808.209 753.005 801.687C809.771 743.044 844.213 669.814 854.729 589.073C857.447 568.203 861.563 546.239 861.808 524.986C862.045 513.613 860.581 500.549 859.426 489.149C857.724 471.222 854.946 453.414 851.107 435.82C843.97 404.539 831.963 372.389 820.673 342.447C814.199 324.637 808.144 306.938 798.42 290.541C790.969 277.977 780.785 266.773 772.089 255.17C757.664 235.925 743.035 218.651 725.973 201.633C709.44 185.143 690.15 174.865 669.411 164.602C633.734 146.383 595.734 130.463 556.948 120.211C544.149 116.847 525.963 116.582 512.719 116.644L500.215 116.749C492.833 116.878 485.733 116.827 478.455 118.292C455.038 123.007 432.85 131.689 410.764 140.36C381.609 151.807 357.984 161.224 331.443 178.294C314.39 189.365 298.675 202.371 284.611 217.053C269.641 232.551 257.273 248.636 244.262 265.725C238.53 273.254 232.806 278.832 227.776 287.224C211.161 314.943 201.127 345.658 190.441 375.995C184.913 391.688 179.05 409.567 175.071 425.59C170.424 444.298 167.436 465.044 165.135 484.204C163.68 496.315 161.695 512.823 161.999 524.991C162.345 538.834 164.603 554.994 166.025 568.958C168.089 589.209 170.146 608.942 174.613 628.825C179.052 648.581 186.082 665.486 193.706 684.029C213.694 732.647 243.589 775.459 281.637 811.699C291.999 821.568 311.58 838.195 324.155 845.921C361.308 868.746 406.196 887.903 448.126 900.31C453.882 902.013 465.187 905.209 470.76 905.931C487.672 908.123 506.7 907.503 523.75 907.454Z"/><path fill="#2C2222" d="M500.215 116.749L512.719 116.644C525.963 116.582 544.149 116.847 556.948 120.211C595.734 130.463 633.734 146.383 669.411 164.602C690.15 174.865 709.44 185.143 725.973 201.633C743.035 218.651 757.664 235.925 772.089 255.17C780.785 266.773 790.969 277.977 798.42 290.541C808.144 306.938 814.199 324.637 820.673 342.447C831.963 372.389 843.97 404.539 851.107 435.82C854.946 453.414 857.724 471.222 859.426 489.149C860.581 500.549 862.045 513.613 861.808 524.986C861.563 546.239 857.447 568.203 854.729 589.073C844.213 669.814 809.771 743.044 753.005 801.687C746.692 808.209 738.652 814.444 731.54 820.405C692.124 853.44 645.8 876.866 596.947 892.416C566.873 902.044 555.708 907.499 523.75 907.454C506.7 907.503 487.672 908.123 470.76 905.931C465.187 905.209 453.882 902.013 448.126 900.31C406.196 887.903 361.308 868.746 324.155 845.921C311.58 838.195 291.999 821.568 281.637 811.699C243.589 775.459 213.694 732.647 193.706 684.029C186.082 665.486 179.052 648.581 174.613 628.825C170.146 608.942 168.089 589.209 166.025 568.958C164.603 554.994 162.345 538.834 161.999 524.991C161.695 512.823 163.68 496.315 165.135 484.204C167.436 465.044 170.424 444.298 175.071 425.59C179.05 409.567 184.913 391.688 190.441 375.995C201.127 345.658 211.161 314.943 227.776 287.224C232.806 278.832 238.53 273.254 244.262 265.725C257.273 248.636 269.641 232.551 284.611 217.053C298.675 202.371 314.39 189.365 331.443 178.294C357.984 161.224 381.609 151.807 410.764 140.36C432.85 131.689 455.038 123.007 478.455 118.292C485.733 116.827 492.833 116.878 500.215 116.749ZM213.853 710.262C225.17 700.435 237.92 697.265 243.797 684.228C237.884 687.006 226.683 691.577 220.689 684.657C220.102 683.979 220.423 682.534 220.745 681.856C225.293 673.57 244.382 672.665 246.069 661.337C242.972 659.899 223.603 669.226 229.961 655.796C231.447 652.657 235.601 649.506 236.614 646.357L236.109 645.533C231.916 644.557 229.236 646.86 225.762 644.079C222.671 638.813 229.74 634.758 233.545 632.53C239.899 628.809 246.703 625.191 251.623 619.589C246.737 620.735 237.166 623.737 232.926 621.465C229.76 616.882 236.094 612.029 239.382 609.671C245.648 605.175 253.609 602.959 259.005 597.389C256.925 597.13 254.759 597.116 253.097 595.937C248.886 589.805 261.344 580.165 264.371 574.313C268.067 567.17 265.273 543.743 271.385 540.351C273.572 540.911 274.689 543.245 275.285 545.315C277.577 553.274 282.282 560.482 283.403 568.702C282.366 571.246 281.289 573.774 280.171 576.284C285.634 584.077 301.287 588.894 300.749 596.509C297.724 601.817 289.521 597.299 286.024 599.624C285.204 607.287 315.039 612.947 313.163 623.825C312.9 625.346 312.383 625.876 311.228 626.711C306.156 627.902 298.665 626.391 293.095 626.44C297.019 630.032 300.128 632.721 304.237 636.07C310.219 640.949 324.694 647.769 325.071 655.771C322.417 662.292 304.682 656.985 299.64 655.703C302.535 663.698 302.59 663.675 307.211 670.196C311.976 676.92 325.949 683.211 325.039 690.87C321.243 695.945 309.831 688.78 306.797 691.712C306.4 697.202 320.131 708.333 324.175 711.433C328.528 714.769 339.453 720.597 339.17 726.547C338.684 727.285 338.417 728.023 337.395 728.117C328.905 728.9 318.711 725.113 310.272 724.174C318.819 731.474 338.444 741.879 349.316 746.437C351.798 734.224 352.619 721.296 353.804 708.882C354.394 702.714 354.381 695.705 356.337 689.808C357.186 687.251 358.788 685.117 361.068 683.662C374.575 675.041 403.445 683.621 418.9 683.05C422.377 682.921 428.71 681.848 429.635 677.689C429.804 676.93 429.29 676.133 428.854 675.531C425.122 670.39 417.494 666.692 412.553 662.553C393.539 646.625 397.236 638.064 398.037 615.584C398.268 609.106 396.969 602.735 397.316 596.21C397.332 595.913 397.33 595.614 397.343 595.317C397.543 590.836 403.091 586.055 406.329 583.207C409.221 580.663 414.735 577.453 415.152 573.252C415.307 571.69 414.664 570.234 413.607 569.12C406.561 561.698 378.271 570.755 362.348 556.113C357.386 551.55 355.428 546.301 355.355 539.677C355.281 533.046 355.974 526.369 356.215 519.739C345.535 516.642 334.442 513.607 328.167 503.244C325.413 498.694 326.349 488.692 324.133 485.267C316.473 473.431 308.004 460.568 326.373 452.353C334.961 448.512 346.427 445.958 356.189 443.281L416.782 427.231C422.618 425.69 436.717 422.298 441.78 420.171C444.077 417.632 446.492 412.66 447.678 409.693C453.134 396.038 456.861 388.305 469.25 379.593C472.319 377.435 478.96 370.323 479.116 366.216C478.4 365.051 476.604 364.207 475.32 364.132C455.405 362.981 432.05 363.919 412.115 365.717C387.246 367.961 382.64 364.367 362.394 350.292C355.907 345.782 347.164 341.451 342.242 334.938C338.418 329.725 343.459 325.255 347.908 323.037C354.417 319.791 360.942 316.95 367.608 314.042C375.176 311.044 384.158 306.213 392.082 304.581C405.861 301.743 420.746 302.517 434.773 301.638C439.818 301.321 453.812 301.211 447.588 292.299C442.325 284.762 432.012 280.311 435.464 269.042C440.377 251.434 444.507 226.573 449.937 209.441C450.845 206.575 467.198 194.13 470.842 190.883C475.693 186.56 484.829 177.768 489.754 174.112C495.766 170.288 499.381 168.936 506.456 168.44C525.519 167.102 543.974 163.322 563.11 162.734C583.799 162.098 577.708 169.574 581.814 183.689L600.501 248.25C602.72 255.942 605.453 263.524 607.619 271.247C610.021 279.815 600.615 290.175 614.317 292.998C621.174 294.21 629.426 293.938 636.365 293.704C642.042 293.512 649.678 293.535 655.078 293.064C673.191 291.485 678.893 295.518 688.432 310.608C692.816 317.545 699.223 325.298 703.843 332.594C704.633 333.837 705.367 335.114 706.042 336.423L705.948 337.138C705.561 339.907 705.211 341.498 702.946 343.248C687.096 355.485 617.933 342.671 614.103 363.786C613.612 366.489 615.3 369.219 616.848 371.277C621.846 377.925 636.607 387.432 635.498 396.251C635.058 399.746 632.449 402.284 629.72 404.237C625.132 407.522 612.859 411.991 612.165 418.046C612.027 419.246 612.412 420.828 613.22 421.718C617.586 426.52 638.65 430.028 645.642 432.075C662.812 437.102 729.99 459.785 741.957 469.036C745.948 472.121 747.973 475.53 748.016 480.621C748.043 483.762 747.175 486.807 745.882 489.648C743.425 495.044 739.6 499.756 736.621 504.867C730.588 515.217 720.803 536.317 712.665 544.024C709.735 546.798 705.93 548.127 702.071 549.026C693.091 551.118 683.251 551.255 674.062 551.792C657.457 552.762 640.802 553.238 624.219 554.429C617.96 554.878 609.671 554.715 603.935 557.41C601.238 558.677 600.016 560.167 599.411 563.078C601.734 571.592 611.968 575.445 617.216 580.958C626.65 590.869 647.061 603.665 636.974 619.252C635.658 621.287 633.91 624.018 633.536 626.171C633.811 627.115 634.223 628.368 635.277 628.706C647.363 632.574 659.879 627.508 663.642 644.872C669.022 669.696 668.953 696.954 672.711 722.25C673.837 729.83 673.934 737.645 675.057 745.169C681.673 742.709 710.297 733.146 711.806 727.513C707.752 723.863 684.106 730.464 681.074 723.502C681.448 721.16 682.653 720.044 684.758 718.679C690.636 714.867 715.214 699.393 718.409 694.666L718.388 693.695C714.305 691.385 703.994 695.875 700.326 691.006C698.233 683.064 719.131 669.872 721.327 659.762C719.576 653.138 699.757 665.181 694.895 658.532C693.651 648.517 724.052 634.484 728.736 626.657C725.343 624.467 711.709 628.57 708.744 622.212C707.791 611.605 737.344 607.877 738.593 598.356C736.092 595.026 726.608 599.593 722.231 597.213C720.225 593.184 727.871 588.336 730.555 585.874C734.404 582.344 739.231 579.147 742.881 575.442C739.171 565.481 740.832 557.746 744.607 548.139C745.618 545.565 749.743 540.712 752.142 544.032C758.566 552.925 754.962 566.008 758 576.141L758.464 576.566C761.91 579.669 770.577 584.776 770.668 588.697C770.746 592.047 764.255 593.99 767.386 597.745C772.025 603.31 789.863 609.781 790.809 616.065C789.127 620.117 779.616 619.484 775.3 620.738C781.316 628.387 796.687 632.842 799.262 640.217C798.47 645.662 786.476 644.702 782.153 644.656L782.599 645.234C785.635 649.139 796.2 657.289 792.537 661.652C788.481 663.357 782.75 662.1 778.45 661.206C784.458 669.118 798.827 676.623 800.251 685.882C801.464 693.768 782.777 684.672 780.369 686.885C781.237 691.822 806.17 705.453 811.454 707.388C836.956 659.811 849.753 592.001 853.292 538.522C857.617 473.149 837.962 406.508 814.603 346.224C805.121 321.755 797.816 299.309 781.104 278.482C769.167 263.604 757.827 247.869 745.467 233.275C740.364 227.072 734.115 221.508 728.891 215.488C715.198 199.707 699.436 188.352 680.956 178.906C642.978 159.495 604.951 140.896 563.665 129.48C547.19 124.925 528.309 123.47 511.119 123.73C502.31 123.997 493.436 123.349 484.706 124.685C447.586 130.364 367.055 163.728 335.394 184.378C317.381 196.347 300.839 210.394 286.109 226.228C275.193 237.833 266.202 250.546 256.209 261.483C229.278 289.904 216.104 324.439 203.256 360.865C194.426 385.901 184.919 412.488 179.362 438.838C173.65 465.925 169.915 498.137 168.744 525.976C168.29 536.772 172.039 551.14 172.246 562.195C175.639 599.46 180.208 630.307 193.797 665.446C200.046 681.605 207.829 695.405 213.853 710.262ZM344.317 792.681C344.683 789.12 345.015 785.526 345.532 781.988C341.559 781.948 332.74 782.074 329.151 781.714C332.014 785.392 338.831 791.141 343.08 793.232L344.013 793.174L344.317 792.681ZM801.844 725.273L804.705 720.211C798.545 719.043 792.393 717.83 786.25 716.573C786.236 721.721 795.268 726.051 799.748 726.78C801.37 726.252 800.661 726.688 801.844 725.273ZM677.482 770.286C686.014 768.81 696.048 766.756 703.764 762.629C706.131 761.153 710.648 758.697 711.08 755.744C704.881 754.388 683.823 756.465 675.822 755.207C676.278 759.987 676.676 765.618 677.482 770.286ZM675.242 829.702C664.334 834.467 653.646 838.984 642.493 843.209C633.607 846.574 624.962 850.402 615.525 852.144C605.803 853.594 591.688 853.127 581.526 853.085L521.469 852.571C478.282 852.246 434.599 853.783 391.489 852.736C375.43 852.345 358.565 841.301 345.406 834.397C340.392 831.766 316.575 827.848 310.37 827.398C321.27 835.162 332.506 842.826 344.16 849.411C377.19 868.077 435.248 892.286 472.205 898.41C488.854 901.169 534.675 900.747 551.234 898.003C562.673 896.107 573.782 892.029 584.782 888.439C599.328 883.69 613.926 879.051 628.119 873.31C644.914 866.515 661.856 857.888 677.739 849.142C685.683 844.439 698.632 837.185 705.385 831.633C693.962 831.133 686.598 832.113 675.242 829.702ZM224.04 728.563L225.039 729.918C229.54 729.818 235.754 719.734 236.813 715.696L236.496 715.038L235.93 714.919C229.882 718.07 226.258 719.654 219.478 720.889L224.04 728.563ZM346.863 772.258C347.159 769.285 349.013 757.218 348.083 755.176C347.481 755.165 347.043 755.097 346.485 755.232C337.211 756.351 328.37 757.497 319.012 757.348C316.99 757.316 310.543 756.763 309.256 757.388C310.886 759.711 317.583 762.512 320.376 763.64C329.03 767.027 337.874 769.904 346.863 772.258ZM679.407 791.219C680.814 790.468 687.315 787.127 688.247 786.437C690.442 785.202 691.954 784.395 693.972 782.831C690.68 782.172 680.933 780.415 678.454 779.501C678.635 783.656 678.948 787.078 679.407 791.219ZM680.348 805.64C680.96 810.192 681.457 814.533 682.568 819.003C682.796 819.084 683.025 819.165 683.253 819.247C689.921 814.637 716.697 791.972 719.421 786.047L719.29 784.802C717.969 783.832 718.689 784.116 717.04 783.942C709.71 786.342 685.834 800.683 680.348 805.64ZM341.57 805.924C336.065 802.629 330.651 799.187 325.331 795.601C318.551 791.042 310.643 784.652 303.054 782.227C307.84 791.034 330.46 819.754 341.029 820.227C341.653 815.548 341.546 810.658 341.57 805.924Z"/><path fill="#A0A491" d="M588.445 659.588L589.356 659.516C592.686 661.577 594.027 679.624 594.721 684.371C597.299 701.223 599.742 718.096 602.048 734.988C603.498 746.246 603.637 762.117 608.781 772.118C615.133 783.229 632.149 785.492 636.367 798.275C638.814 805.695 639.166 814.35 640.183 822.096C640.669 825.795 641.621 833.757 638.139 836.142C620.725 848.074 600.511 846.6 580.637 846.538L523.971 846.064C483.036 845.893 439.847 847.523 399.38 846.357C385.403 845.099 356.174 838.849 349.416 825.281C349.466 814.856 350.5 790.682 352.716 780.62C356.99 770.317 377.311 765.841 380.683 755.62C386.89 736.808 385.742 708.398 392.502 690.44C409.15 689.907 428.312 694.692 444.901 694.094C453.034 693.801 465.437 690.415 473.5 688.434L509.641 679.308C535.88 672.654 562.504 666.893 588.445 659.588Z"/><path fill="#A0A491" d="M618.119 432.712C623.342 432.748 628.438 433.735 633.469 435.075C646.906 438.656 659.938 444.186 673.079 448.742C689.589 454.465 706.165 459.402 722.266 466.324C726.611 468.192 731.347 469.987 735.237 472.705C738.025 474.654 740.511 477.339 740.922 480.854C741.436 485.25 738.137 490.304 735.33 493.443C731.613 497.6 674.753 542.723 670.031 544.243C663.298 546.412 654.195 546.029 647.118 546.354L609.753 547.894C567.355 549.643 524.977 551.824 482.623 554.436C473.855 554.779 464.295 555.694 455.437 556.224C442.464 556.919 429.486 557.515 416.505 558.014C403.377 558.594 387.038 560.59 374.817 555.752C372.083 554.67 362.781 548.257 362.572 545.372C361.527 530.967 360.936 509.997 376.371 502.648C395.397 493.713 416.269 490.886 436.21 484.427C457.909 477.399 457.453 465.326 466.598 446.939C473.097 445.446 481.734 444.875 488.522 444.254L517.195 441.574C550.113 438.464 585.26 434.801 618.119 432.712Z"/><path fill="#A0A491" d="M575.217 558.709C577.847 558.833 578.655 559.09 580.846 560.663C598.067 573.032 613.671 587.683 628.944 602.333C630.374 603.705 631.983 606.79 632.268 608.787C633.195 615.289 627.204 620.362 621.941 622.9C611.579 627.599 600.558 630.866 589.834 634.642C569.773 641.706 549.722 648.695 529.364 654.864C515.154 659.135 496.318 667.125 481.985 669.337L481.545 669.395C462.58 671.747 453.378 659.537 439.926 649.591C410.62 627.92 433.812 616.26 450.325 597.807C456.265 591.17 454.547 584.329 453.911 576.32C458.141 575.573 462.714 575.069 466.987 574.498C503.118 569.677 538.856 561.646 575.217 558.709Z"/><path fill="#414830" d="M749.288 558.897C751.073 561.368 748.944 571.612 752.531 577.677C755.848 583.285 756.742 584.001 761.647 588.859C756.868 599.401 759.966 600.018 768.683 605.976C772.896 608.855 777.367 611.559 781.681 614.292L780 614.39C777.372 614.521 768.996 615.845 768.48 618.896C767.228 626.291 785.94 633.819 787.698 638.39C784.806 641.73 777.378 635.875 774.845 642.384C775.137 647.432 782.147 653.01 785.89 656.736C754.16 652.775 784.197 675.1 792.534 683.209C790.802 683.069 787.704 682.844 786.194 682.132C774.649 676.69 765.502 684.065 777.848 694.011C782.015 697.368 802.633 709.571 803.83 713.213C799.964 717.685 781.867 708.007 779.084 713.525C775.479 720.67 792.004 729.585 797.302 732.139C775.065 766.446 749.843 800.064 715.598 823.28C710.66 826.628 691.803 825.176 685.068 824.985C693.274 817.08 702.291 810.485 710.563 802.78C713.488 800.301 716.919 796.937 719.634 794.485C730.982 784.238 728.56 774.905 712.366 780.327C709.171 781.397 707.21 782.392 704.212 784.218C702.847 774.206 691.736 777.272 683.614 776.765C688.653 773.851 735.928 760.023 714.297 749.216C701.574 748.94 696.512 751.182 681.421 749.138C691.093 744.038 715.776 737.263 718.898 726.803C721.606 717.729 699.262 721.483 693.841 721.137L693.077 721.084C697.715 717.21 702.371 713.602 707.186 710.04C712.95 705.775 720.628 702.02 723.977 695.518C725.121 693.478 726.271 689.588 723.7 688.028C720.289 685.957 711.29 687.493 707.496 687.739C711.225 683.153 735.384 661.838 726.969 653.578C722.306 649.001 710.487 653.985 703.456 654.176C712.285 644.807 726.927 638.57 735.096 629.577C735.819 628.781 736.121 624.373 735.255 623.074C731.982 618.165 722.331 622.865 716.376 621.06L716.073 620.267C719.262 615.416 744.926 609.581 745.296 599.068C745.582 590.932 737.155 591.263 731.833 591.333C738.896 586.586 741.776 584.814 746.541 577.843C747.026 568.259 742.68 567.064 749.288 558.897Z"/><path fill="#414830" d="M271.38 576.91C271.459 576.995 271.538 577.079 271.617 577.163C274.192 583.301 281.912 587.903 287.527 591.9C286.439 591.889 285.35 591.903 284.263 591.94C272.013 592.417 275.232 599.549 280.837 605.988C286.65 612.665 293.263 615.508 300.926 619.512C295.258 619.517 288.601 616.482 284.087 620.32C280.876 627.822 297.605 640.195 302.803 643.924C305.695 645.999 316.213 650.645 316.879 653.488L316.325 654.192C309.604 654.644 289.243 635.557 292.273 653.834C295.089 670.829 304.913 677.837 318.211 686.851C309.339 684.885 301.986 678.097 297.06 687.268C299.901 696.662 307.556 708.07 315.643 713.678C319.559 716.393 324.621 719.066 328.935 721.962C322.561 719.32 312.245 716.629 305.277 716.676C303.168 716.69 301.216 720.924 302.155 722.888C308.775 736.731 327.992 742.216 340.107 749.248L340.887 749.705C332.332 750.633 323.468 750.858 314.861 750.724C311.706 750.675 306.235 750.086 303.361 751.007C302.22 751.924 301.372 752.833 301.152 754.31C299.251 767.074 317.551 771.088 326.852 773.086C330.086 773.781 331.376 773.528 334.4 774.928C332.993 775.545 324.85 774.627 320.856 775.532C316.383 779.231 326.894 787.076 329.185 790.99L328.686 791.305C319.398 787.65 312.34 777.817 303.575 775.264C289.907 771.282 298.082 788.725 301.408 793.583C307.938 802.695 319.732 814.094 327.824 821.937C319.346 820.807 311.704 819.332 303.24 820.694C296.347 815.644 290.959 810.359 284.791 804.511C263.332 784.407 244.451 761.717 228.582 736.962C235.027 732.011 247.04 715.79 246.67 708.068C243.278 702.402 227.514 714.435 221.871 712.907C221.762 710.989 238.187 700.8 240.589 698.437C243.413 695.659 246.527 693.587 248.914 690.126C256.041 679.793 250.574 672.779 239.363 678.831C237.388 679.901 232.78 681.46 230.578 681.976C230.651 681.827 239.997 676.594 241.525 675.92C246.378 673.78 259.397 656.99 255.554 652.302C251.764 651.101 243.149 655.346 237.295 656.138L236.494 656.243C240.632 650.996 250.582 643.817 250.021 637.151C247.821 635.144 242.747 639.315 239.592 639.775C237.369 640.099 235.75 639.989 233.549 639.921C235 639.101 236.445 638.269 237.883 637.425C243.706 634.001 256.474 625.843 258.807 619.121C260.98 612.86 245.289 615.351 242.479 615.522C248.617 611.268 256.196 608.638 262.072 603.601C269.53 597.207 266.703 595.042 260.495 589.932L271.38 576.91Z"/><path fill="#A0A491" d="M648.489 645.158C653.047 644.463 656.133 644.822 657.211 650.012C659.403 660.571 660.47 671.819 661.722 682.537C664.629 706.623 667.096 730.76 669.122 754.937C670.399 768.968 672.652 783.696 673.219 797.66C673.093 806.053 673.319 813.666 669.12 821.116C666.208 826.284 653.767 835.001 648.08 831.395C646.14 829.141 645.921 815.375 645.632 811.123C645.162 785.222 636.443 786.95 619.302 772.353C617.131 770.504 614.998 768.911 613.996 766.172C609.358 753.494 609.241 734.732 607.365 720.972C604.932 703.124 601.463 685.232 599.794 667.302C599.601 665.229 599.129 660.332 600.133 658.59C601.481 656.251 642.999 646.089 648.489 645.158Z"/><path fill="#A0A491" d="M573.594 357.213C580.4 356.936 584.921 357.333 591.141 360.764C598.246 364.684 626.902 389.154 628.666 395.212C628.528 396.106 628.231 397.502 627.53 398.09C611.366 411.647 585.507 413.077 566.268 415.363C546.907 417.737 527.523 419.912 508.118 421.887C499.227 422.767 490.514 423.92 481.295 425.097C473.712 426.821 454.141 424.694 454.373 414.172C454.671 400.673 469.244 388.363 478.6 380.291C483.3 376.237 489.957 366.073 494.959 364.037C504.043 360.339 518.268 360.698 528.214 360.098L573.594 357.213Z"/><path fill="#A0A491" d="M516.982 204.713C519.241 204.503 522.813 204.499 525.176 204.43C530.037 211.916 537.354 224.305 540.803 232.182C539.976 237.283 536.789 245.191 536.758 249.822C536.658 264.693 539.049 280.535 539.906 295.432C517.813 295.488 492.833 299.477 471.734 296.783C455.721 293.092 453.559 286.979 442.308 275.526C443.627 257.085 451.775 235.945 454.372 217.235C456.007 205.452 475.951 206.638 484.859 206.23C495.57 205.816 506.279 205.31 516.982 204.713Z"/><path fill="#A0A491" d="M672.025 319.291C676.556 318.833 681.116 318.727 685.664 318.974C689.419 322.883 697.027 333.158 699.088 338.047C693.953 340.592 685.292 341.854 679.582 342.491C664.27 344.199 648.772 344.123 633.396 345.284C619.944 346.299 606.805 348.361 593.363 349.35C545.083 352.561 496.765 355.175 448.421 357.191C435.905 357.782 398.29 360.821 388.791 358.248C380.515 354.778 367.906 346.194 360.5 340.678C373.012 338.851 386.946 337.95 399.615 337.054L456.021 333.325C527.926 328.434 600.26 324.944 672.025 319.291Z"/><path fill="#A0A491" d="M652.368 299.723C667.539 299.063 671.19 299.32 681.27 311.215C651.705 315.22 615.219 316.737 585.003 318.51C539.614 321.044 494.242 323.879 448.891 327.017C426.193 328.509 400.429 329.574 377.996 331.863C373.005 332.368 352.22 335.735 349.961 331.499C351.233 328.299 376.786 317.079 381.555 315.192C394.245 310.169 410.744 309.635 424.376 308.665C439.704 307.547 455.044 306.603 470.394 305.834C509.083 303.836 547.797 302.356 586.526 301.395C608.366 300.8 630.593 300.572 652.368 299.723Z"/><path fill="#A0A491" d="M569.894 172.976C571.638 175.118 577.654 193.24 578.928 196.863C586.221 217.605 590.049 239.603 597.277 260.401C599.79 268.16 604.918 278.643 597.747 285.59C589.107 293.959 570.715 294.444 559.302 295.089C555.595 295.561 550.388 295.696 546.558 295.908C546.457 280.977 542.42 265.065 542.957 250.12C543.338 245.541 548.931 233.525 547.27 229.505C543.949 221.466 536.571 211.334 532.142 203.513C536.781 199.52 543.297 194.818 548.256 190.955C555.691 185.234 562.909 179.237 569.894 172.976Z"/><path fill="#A0A491" d="M457.748 446.157L458.302 446.319C458.67 448.483 449.094 468.436 446.548 470.368C424.209 487.317 390.252 484.06 367.339 499.875C364.129 502.091 359.444 509.61 357.134 513.091C349.603 511.309 345.488 509.453 338.917 505.303C331.014 499.61 333.04 492.509 330.414 483.464L330.208 482.77C370.644 468.971 415.816 453.918 457.748 446.157Z"/><path fill="#A0A491" d="M440.042 579.181C445.699 577.998 446.568 580.444 448.358 584.999C442.372 607.211 402.479 616.778 425.543 645.826C432.78 654.942 440.675 658.943 449.376 666.117C446.135 666.445 442.859 666.847 439.619 667.218C438.653 667.479 434.263 667.949 433.024 668.107C422.898 664.053 406.08 651.421 404.601 639.716C403.612 631.7 405.425 624.037 405.559 615.925C405.663 609.659 401.321 598.184 405.624 593.195C415.201 582.093 426.493 581.272 440.042 579.181Z"/><path fill="#A0A491" d="M436.272 429.639C441.116 428.834 462.544 431.419 460.241 437.866C457.402 439.027 449.754 440.407 446.584 440.879C428.998 443.494 413.483 448.433 396.62 453.668C378.86 459.182 361.438 464.473 343.832 470.684C340.266 471.829 336.685 472.927 333.09 473.977C331.4 474.462 327.384 475.482 325.947 474.468C322.595 472.103 321.955 465.674 324.284 462.413C326.322 459.61 330.934 458.539 334.128 457.258C343.181 453.628 352.846 451.533 362.246 449.017C374.547 445.723 386.789 441.941 399.158 438.961C411.404 436.01 423.905 431.744 436.272 429.639Z"/><path fill="#A0A491" d="M561.511 169.738L561.819 170.12C561.612 170.593 561.584 170.718 561.223 171.185C557.996 175.361 552.317 179.358 548.225 182.764C543 187.114 537.666 192.115 531.434 194.974C520.875 199.82 485.498 199.732 471.703 200.574L471.386 199.999C471.6 199.733 471.818 199.469 472.042 199.212C474.449 196.452 477.755 194.172 480.517 191.747C486.016 186.92 491.464 180.197 498.284 177.245C506.812 173.556 549.886 170.571 561.511 169.738Z"/><path fill="#A0A491" d="M371.287 688.68C376.811 688.368 379.502 688.439 384.908 689.435C379.975 708.791 378.62 727.88 375.633 747.551C374.485 755.114 369.61 757.871 363.469 762.152C360.198 764.262 357.861 765.489 354.132 766.554C354.774 757.838 360.984 694.482 363.677 691.179C365.489 688.957 368.667 688.967 371.287 688.68Z"/><path fill="#A0A491" d="M724.629 510.423L725.095 510.626C725.199 514.215 713.328 532.517 710.283 535.963C703.035 544.169 694.015 543.768 683.89 544.138L683.265 543.956L683.149 543.351C689.541 537.399 698.068 531.262 705.113 525.938C711.933 520.785 718.018 515.819 724.629 510.423Z"/><path fill="#414830" d="M274.086 562.315C275.572 563.688 277.417 566.884 277.388 569.039C277.361 571.054 276.926 570.946 275.49 572.357C274.606 573.297 274.625 573.325 273.528 573.977L272.923 573.043C272.561 569.95 273.372 565.357 274.086 562.315Z"/></svg>